<svg xmlns="http://www.w3.org/2000/svg" xmlns:xlink="http://www.w3.org/1999/xlink" width="100%" height="100%" viewBox="214.784 118.163 188.54 187.061" preserveAspectRatio="xMidYMid meet" zoomAndPan="disable"  ><defs id="svgEditorDefs"><path id="svgEditorClosePathDefs" stroke="green" fill="khaki" style="stroke-width: 1px; vector-effect: non-scaling-stroke;"/><marker id="arrow15-12-left" markerHeight="12" markerUnits="strokeWidth" markerWidth="15" orient="auto" refX="3" refY="0" viewBox="0 -5 20 20"><path d="M 15 -5 L 0 0 L 15 5 z" fill="black"/></marker><linearGradient gradientUnits="objectBoundingBox" id="lgrd2-black-white" spreadMethod="pad" x1="52.6%" x2="100%" y1="52.2%" y2="100%"><stop offset="0%" stop-color="black"/><stop offset="100%" stop-color="white"/></linearGradient><radialGradient cx="52.5%" cy="50%" fx="83.1%" fy="69.1%" id="rgrd2-white-red" r="50%" gradientTransform="rotate(0)"><stop offset="0%" style="stop-color: pink; stop-opacity: 0;"/><stop offset="100%" style="stop-color: crimson; stop-opacity: 1;"/></radialGradient></defs><rect id="svgEditorBackground" x="0" y="0" width="835" height="541" style="fill: none; stroke: none;"/><circle id="e1_circle" cx="342" cy="245" stroke="#FF6347" style="stroke-width: 1px; vector-effect: non-scaling-stroke;" r="61" fill="#B22222" transform="matrix(1.51036 0 0 1.51036 -208.543 -159.038)"/><path stroke="#3CB371" id="e3_areaS2" fill="#3FB33F" style="stroke-width: 1px; vector-effect: non-scaling-stroke;" d="M238.25,156.75q-2.05865478515625,2.858001708984375,-6.5,12.5t-5,17.5t6,18.5t3,1t4,-20.5t2.5,-18.5t-4,-10.5Z" /><path stroke="#3CB371" id="e4_areaS2" fill="#41B041" style="stroke-width: 1px; vector-effect: non-scaling-stroke;" transform="matrix(0.281346 0.726667 0.952092 -0.253701 29.3752 -7.3289)" d="M267.25,146.75q-2.05865478515625,2.858001708984375,-6.1676025390625,13.45208740234375t-5.3323974609375,16.54791259765625t6,18.5t3,1t4.2576904296875,-19.394134521484375t1.79132080078125,-19.636398315429688t-3.54901123046875,-10.469467163085938Z"/><path stroke="#3CB371" id="e10_areaS2" fill="#50B350" style="stroke-width: 1px; vector-effect: non-scaling-stroke;" d="M241.25,152.25q3.8902130126953125,0.1499786376953125,15.5,1.5t19.5,3.5t18.5,11t6.5,22t-3,4t-19,-11.5t-24.5,-13t-13.5,-17.5Z"/></svg>